<svg width="800" height="800" viewBox="0 0 800 800" fill="none" xmlns="http://www.w3.org/2000/svg">
<path d="M160 191.875H338.125V405H160V191.875ZM408.75 191.875H551.25V227.5H408.75V191.875ZM408.75 370H551.25V405.625H408.75V370ZM408.75 280.625H551.25V316.25H408.75V280.625ZM160 460H550.625V495.625H160V460ZM160 633.75H550.625V669.375H160V633.75ZM160 544.375H550.625V580H160V544.375ZM150 10V78.125H71.25V791.875H650V723.75H728.75V10H150ZM614.375 756.875H106.25V113.125H150H185.625H614.375V687.5V723.125V756.875ZM693.75 688.125H650V77.5H185.625V45.625H693.75V688.125Z" fill="black"/>
</svg>
