<svg width="800" height="800" viewBox="0 0 800 800" fill="none" xmlns="http://www.w3.org/2000/svg">
<g clip-path="url(#clip0_24_53)">
<path d="M751.695 60.3073L493.722 0L0.126953 493.591L306.492 800L799.873 306.636L751.695 60.3073ZM39.9264 493.591L502.581 30.9923L727.531 83.5495L769.322 297.348L306.481 760.2L39.9264 493.591Z" fill="#010002"/>
<path d="M578.408 144.584C561.382 161.622 561.382 189.248 578.408 206.302C595.419 223.356 623.001 223.356 640.095 206.302C657.149 189.248 657.149 161.626 640.095 144.584C623.001 127.53 595.419 127.586 578.408 144.584Z" fill="#010002"/>
<path d="M510.875 272.738L479.354 304.2C445.97 280.274 407.653 281.542 381.497 307.713C354.118 335.081 359.193 369.67 378.64 414.389C392.506 447.134 392.065 468.071 374.772 485.364C356.852 503.344 330.808 503.145 308.476 480.841C290.837 463.159 280.739 440.501 277.015 422.239L248.367 435.779C251.539 454.626 264.412 478.878 282.32 497.498L250.859 528.959L270.687 548.799L303.416 516.058C340.867 543.438 381.505 537.452 406.639 512.259C434.647 484.239 434.349 451.852 415.216 406.206C399.442 367.134 398.019 349.353 414.02 333.296C426.936 320.439 448.541 313.027 472.749 337.294C492.919 357.42 498.551 377.575 501.424 387.96L530.044 375.043C525.946 360.278 518.109 342.314 500.133 323.126L530.715 292.586L510.875 272.738Z" fill="#010002"/>
</g>
<defs>
<clipPath id="clip0_24_53">
<rect width="800" height="800" fill="white"/>
</clipPath>
</defs>
</svg>
