<svg width="512" height="512" viewBox="0 0 512 512" fill="none" xmlns="http://www.w3.org/2000/svg">
<g clip-path="url(#clip0_23_39)">
<path d="M47.294 422.846C36.386 411.922 29.679 396.976 29.661 380.384V318.589H0V380.384C0.017 429.929 40.23 470.123 89.765 470.158H130.297V440.488H89.765C73.164 440.48 58.236 433.771 47.294 422.846Z" fill="black"/>
<path d="M85.9313 235.914C107.567 235.914 125.075 218.406 125.075 196.76C125.075 175.151 107.568 157.607 85.9313 157.607C64.3123 157.607 46.7773 175.151 46.7773 196.76C46.7773 218.406 64.3123 235.914 85.9313 235.914Z" fill="black"/>
<path d="M179.165 369.308H124.238V287.55C124.238 266.385 107.104 249.232 85.9299 249.232C64.7829 249.232 47.6309 266.384 47.6309 287.55V380.696C47.6309 401.851 64.7739 419.004 85.9299 419.004C88.8029 419.004 155.954 418.809 155.954 418.809L159.628 475.497C159.886 487.107 169.512 496.315 181.122 496.065C192.75 495.807 201.948 486.181 201.682 474.571L203.915 394.059C203.915 380.375 192.839 369.308 179.165 369.308Z" fill="black"/>
<path d="M482.339 318.589V380.384C482.322 396.976 475.614 411.922 464.707 422.846C453.764 433.771 438.836 440.48 422.245 440.488H381.704V470.158H422.245C471.771 470.122 511.975 429.928 512.001 380.384V318.589H482.339Z" fill="black"/>
<path d="M426.069 235.914C447.687 235.914 465.222 218.406 465.222 196.76C465.222 175.151 447.687 157.607 426.069 157.607C404.433 157.607 386.924 175.151 386.924 196.76C386.924 218.406 404.433 235.914 426.069 235.914Z" fill="black"/>
<path d="M464.378 380.695V287.549C464.378 266.384 447.208 249.231 426.07 249.231C404.897 249.231 387.762 266.383 387.762 287.549V369.307H332.835C319.161 369.307 308.085 380.374 308.085 394.057L310.318 474.569C310.051 486.179 319.25 495.805 330.878 496.063C342.488 496.313 352.113 487.104 352.371 475.495L356.046 418.807C356.046 418.807 423.197 419.002 426.07 419.002C447.224 419.003 464.378 401.851 464.378 380.695Z" fill="black"/>
<path d="M366.035 318.963H153.651V355.109H366.035V318.963Z" fill="black"/>
<path d="M268.761 374.511H244.047V462.008H268.761V374.511Z" fill="black"/>
<path d="M359.59 159.404C359.59 166.69 357.237 173.541 352.913 179.698C348.594 185.863 342.242 191.254 334.449 195.258L328.763 198.176L336.139 214.662C313.769 210.792 293.009 203.514 282.524 199.44L282.316 199.351L282.094 199.289C268.033 194.867 257.046 186.203 251.468 175.954L239.618 182.44C247.193 196.193 260.938 206.638 277.646 211.994V212.012C290.622 217.038 317.898 226.593 346.554 229.814L358.266 231.104L346.158 204.023C353.267 199.548 359.369 193.997 363.951 187.466C369.694 179.317 373.097 169.674 373.084 159.406C373.097 146.631 367.818 134.852 359.312 125.636C350.798 116.384 339.063 109.498 325.599 105.814L322.044 118.829C333.298 121.881 342.826 127.61 349.374 134.763C355.956 141.949 359.59 150.339 359.59 159.404Z" fill="black"/>
<path d="M161.724 156.362L145.496 192.642L157.218 191.343C197.679 186.823 236.427 173.265 254.82 166.139C272.298 160.543 287.381 150.997 298.239 138.587C309.191 126.097 315.818 110.572 315.81 93.7839C315.818 82.8059 312.976 72.3259 307.945 62.9219C300.397 48.8039 287.977 37.0779 272.608 28.8759C257.252 20.6649 238.895 15.9319 219.18 15.9319C192.922 15.9499 169.027 24.3209 151.438 38.2179C142.652 45.1659 135.451 53.5109 130.407 62.9229C125.385 72.3269 122.556 82.8069 122.556 93.7849C122.542 107.788 127.182 120.947 135.055 132.165C141.813 141.753 150.96 149.956 161.724 156.362ZM142.316 69.2829C148.397 57.8769 158.78 47.8869 172.115 40.7609C185.433 33.6439 201.651 29.4089 219.182 29.4269C242.554 29.4089 263.593 36.9349 278.566 48.7849C286.043 54.7099 291.995 61.6759 296.052 69.2829C300.118 76.8979 302.32 85.1269 302.32 93.7829C302.306 106.977 297.205 119.28 288.095 129.707C278.998 140.116 265.889 148.532 250.347 153.416L250.151 153.479L249.943 153.567C234.014 159.742 201.804 171.004 167.575 176.325L179.18 150.391L173.482 147.473C161.984 141.583 152.571 133.603 146.103 124.386C139.627 115.16 136.05 104.814 136.037 93.7819C136.048 85.1269 138.238 76.8989 142.316 69.2829Z" fill="black"/>
</g>
<defs>
<clipPath id="clip0_23_39">
<rect width="512" height="512" fill="white"/>
</clipPath>
</defs>
</svg>
