<svg width="800" height="800" viewBox="0 0 800 800" fill="none" xmlns="http://www.w3.org/2000/svg">
<path d="M723.603 507.084L726.374 509.034C726.387 438.07 685.036 350.697 626.249 307.705C635.121 283.296 639.968 256.99 639.968 229.563C639.968 102.985 536.973 0 410.389 0C283.816 0 180.834 102.985 180.834 229.561C180.834 253.165 184.428 275.934 191.069 297.376C129.629 338.695 85.9289 425.796 85.9289 498.745L89.0998 496.851C49.8456 564.128 40.5547 641.686 40.4089 643.069L40.0996 645.798L40.8786 648.439C71.5124 753.142 252.757 800 418.794 800C586.652 800 757.188 752.052 759.811 644.92C761.232 586.814 745.928 541.805 723.603 507.084ZM691.167 467.295C638.643 415.704 575.035 399.823 573.947 399.566L566.377 397.785C586.211 379.392 602.764 357.531 615.127 333.213C658.259 364.99 686.064 413.984 691.167 467.295ZM410.389 20.564C525.651 20.564 619.407 114.321 619.407 229.563C619.407 344.81 525.649 438.568 410.389 438.568C295.151 438.568 201.395 344.809 201.395 229.563C201.395 114.32 295.144 20.564 410.389 20.564ZM565.977 398.165L560.918 403.377C514.475 451.407 465.796 475.77 416.289 475.77C366.08 475.77 324.39 450.51 298.974 430.19C331.994 448.595 369.98 459.125 410.379 459.125C470.377 459.127 525.047 435.968 565.977 398.165ZM201.037 323.542C214.148 352.652 233.111 378.576 256.497 399.734C251.926 399.415 247.378 399.195 242.939 399.195C190.433 399.195 151.242 421.395 122.027 452.32C129.254 400.602 157.932 353.64 201.037 323.542ZM573.275 625.663H431.413V647.773H573.275V649.953H481.854V756.597H573.275V756.961C525.773 767.319 472.125 772.6 418.815 772.6C413.613 772.6 408.345 772.51 403.092 772.417V667.183C403.092 628.652 371.742 597.301 333.205 597.301C298.735 597.301 270.099 622.39 264.392 655.246V616.555L293.703 585.779H418.817V614.153H545.995V585.777H573.276V625.663H573.275ZM593.275 752.164V565.767H525.977V594.143H438.822V565.767H285.117L244.374 608.55V753.847C157.346 733.911 85.8139 697.7 67.9933 643.394C71.5108 618.166 102.883 426.621 242.936 426.621C246.902 426.621 250.944 426.773 255.032 427.065C270.759 444.006 331.723 503.189 416.287 503.189C471.394 503.189 524.718 478 574.883 428.277C607.599 438.3 736.237 487.731 732.41 644.254C731.16 695.219 673.094 731.446 593.275 752.164ZM358.992 320.363C308.848 320.363 223.645 279.711 223.645 229.561C223.645 179.419 264.3 138.756 314.444 138.756H506.324C556.479 138.756 597.129 179.409 597.129 229.561C597.129 279.701 505.082 320.363 454.929 320.363H358.992Z" fill="black"/>
</svg>
