<svg width="662" height="668" viewBox="0 0 662 668" fill="none" xmlns="http://www.w3.org/2000/svg">
<path d="M565.453 635C600.196 638.162 631.14 609.185 631 574.482V483.707C631.365 468.866 626.299 454.408 616.761 443.081C589.871 411.142 497.646 390.714 461.089 398.56C432.594 404.677 412.654 433.527 393.163 453.145C358.801 433.48 327.137 409.722 298.799 382.5M212.757 271.588C232.248 251.973 260.918 231.909 266.995 203.23C274.779 166.497 254.548 74.0944 223.093 46.8707C212.029 37.295 197.882 32.0948 183.291 32.2395H93.0879C58.7186 32.272 30.124 63.3565 33.2532 98.2045C33.0549 352.081 199.174 560.462 431.684 618.732" stroke="black" stroke-width="50" stroke-linecap="round" stroke-linejoin="round"/>
</svg>
